<?xml version="1.0" encoding="UTF-8" standalone="no"?>
<!-- Created with Inkscape (http://www.inkscape.org/) -->

<svg
   width="88.732132mm"
   height="88.732132mm"
   viewBox="0 0 88.732132 88.732132"
   version="1.1"
   id="svg1"
   xml:space="preserve"
   inkscape:version="1.4.4 (dcaf3e7d9e, 2026-05-05)"
   sodipodi:docname="drawing.svg"
   inkscape:export-batch-name=""
   inkscape:export-batch-path="/home/dianloo/Desktop/caen/hydra/src/hydrafers/gui/imgs"
   xmlns:inkscape="http://www.inkscape.org/namespaces/inkscape"
   xmlns:sodipodi="http://sodipodi.sourceforge.net/DTD/sodipodi-0.dtd"
   xmlns:xlink="http://www.w3.org/1999/xlink"
   xmlns="http://www.w3.org/2000/svg"
   xmlns:svg="http://www.w3.org/2000/svg"><sodipodi:namedview
     id="namedview1"
     pagecolor="#ffffff"
     bordercolor="#000000"
     borderopacity="0.25"
     inkscape:showpageshadow="2"
     inkscape:pageopacity="0.0"
     inkscape:pagecheckerboard="0"
     inkscape:deskcolor="#d1d1d1"
     inkscape:document-units="mm"
     inkscape:zoom="0.37907327"
     inkscape:cx="85.735403"
     inkscape:cy="68.588323"
     inkscape:window-width="1920"
     inkscape:window-height="1005"
     inkscape:window-x="0"
     inkscape:window-y="38"
     inkscape:window-maximized="1"
     inkscape:current-layer="layer1"><inkscape:page
       x="0"
       y="0"
       width="88.732132"
       height="88.732132"
       id="page1"
       margin="0"
       bleed="0"
       inkscape:label="light_bg" /><inkscape:page
       x="128.03342"
       y="2.0346565"
       width="88.732132"
       height="88.732132"
       id="page2"
       inkscape:label="dark_bg" /><inkscape:page
       x="-116.57936"
       y="10.280178"
       width="71.543564"
       height="77.540283"
       id="page3"
       inkscape:label="nobg" /></sodipodi:namedview><defs
     id="defs1"><linearGradient
       id="linearGradient2"
       inkscape:collect="always"><stop
         style="stop-color:#d36bf9;stop-opacity:1;"
         offset="0"
         id="stop2" /><stop
         style="stop-color:#ffc865;stop-opacity:1;"
         offset="1"
         id="stop3" /></linearGradient><linearGradient
       inkscape:collect="always"
       xlink:href="#linearGradient2"
       id="linearGradient3"
       x1="51.952248"
       y1="8.8618813"
       x2="52.649883"
       y2="88.825493"
       gradientUnits="userSpaceOnUse"
       gradientTransform="translate(-1.359375e-6,3.6722738)" /><linearGradient
       inkscape:collect="always"
       xlink:href="#linearGradient2"
       id="linearGradient6"
       x1="177.19466"
       y1="22.417534"
       x2="180.9577"
       y2="83.244049"
       gradientUnits="userSpaceOnUse" /></defs><g
     inkscape:label="Layer 1"
     inkscape:groupmode="layer"
     id="layer1"
     transform="translate(-7.5861816,-9.3618813)"><circle
       style="fill:url(#linearGradient3);fill-opacity:1;stroke:none;stroke-width:1;stroke-linejoin:round;stroke-dasharray:none"
       id="path2"
       cx="51.952248"
       cy="53.727947"
       r="44.366066" /><path
       style="fill:#3d3846;stroke:none;stroke-width:0.999998"
       d="m -74.948276,95.021078 c -1.2474,-1.2029 -3.0765,-2.965024 -4.06465,-3.915835 -1.94971,-1.876028 -2.71309,-2.707339 -3.77022,-4.105776 -2.03222,-2.688362 -3.15781,-5.23875 -3.66477,-8.303716 -0.16941,-1.024197 -0.18593,-1.354901 -0.14008,-2.803481 0.10593,-3.346547 1.02353,-6.13312 2.99476,-9.094457 0.84572,-1.270513 1.44171,-2.010511 3.15611,-3.918747 0.74529,-0.829541 1.60735,-1.819443 1.91569,-2.199767 2.49871,-3.081971 3.46117,-6.086534 2.8753,-8.975896 -0.32136,-1.584872 -0.89565,-2.737842 -2.38001,-4.778211 -3.27866,-4.506809 -4.29706,-6.727308 -4.61965,-10.072599 -0.4383,-4.545386 1.98629,-9.177036 5.9765,-11.416767 l 0.65686,-0.368694 -0.70007,-0.373221 c -1.24054,-0.661342 -2.48039,-1.73264 -3.05029,-2.6356 -0.37094,-0.58772 -0.16116,-0.705352 0.71631,-0.401668 1.80067,0.623198 3.66974,0.946529 5.47735,0.947524 0.50032,2.77e-4 1.14062,0.03833 1.42288,0.08456 0.28226,0.04624 0.53333,0.06394 0.55794,0.03931 0.19032,-0.19035 -1.3452,-1.892136 -2.21134,-2.450788 -0.24686,-0.159219 -0.46902,-0.342114 -0.4937,-0.406432 -0.20041,-0.522358 2.27602,-0.08654 3.7849,0.66609 1.03709,0.51731 1.67607,1.017607 2.70266,2.116104 0.974,1.042222 1.52737,1.462697 2.79039,2.120272 1.07734,0.560912 1.76277,1.242611 2.34401,2.331264 0.71209,1.333721 1.422,1.896353 3.523264,2.792348 0.71989,0.306963 1.261668,1.536541 1.26157,2.863166 -6.6e-5,0.953852 -0.168288,1.490957 -0.688244,2.19741 -0.355803,0.483422 -1.201033,1.216863 -1.40232,1.216863 -0.0507,0 -0.33884,-0.243738 -0.64031,-0.541647 -0.60219,-0.595069 -1.24246,-0.946268 -2.47596,-1.358107 -1.7486,-0.583829 -2.88978,-0.701282 -5.84999,-0.602123 -0.98836,0.03311 -1.19622,0.01444 -1.7284,-0.155076 -0.75736,-0.241266 -1.33995,-0.575877 -1.93614,-1.112011 l -0.46437,-0.417588 -0.41308,0.449323 c -1.27211,1.383748 -1.46875,3.572766 -0.52809,5.87847 0.56514,1.385249 1.39783,2.594772 3.34168,4.853987 1.51581,1.761732 2.05864,2.488738 2.72293,3.646756 0.98339,1.714298 1.66575,3.73568 1.90423,5.64098 0.15996,1.277893 0.0605,3.622541 -0.21019,4.955201 -0.5696,2.804215 -1.87008,5.629969 -3.90053,8.47524 -0.41583,0.582688 -1.51282,2.00242 -2.43777,3.154966 -1.91167,2.382067 -2.78157,3.636904 -3.34026,4.818395 -0.58035,1.227287 -0.835,2.190494 -0.89119,3.370958 -0.0948,1.991336 0.49348,3.812075 1.85857,5.752396 0.49656,0.705793 2.14398,2.533923 2.48465,2.757182 l 0.23195,0.152009 0.64465,-0.635595 c 1.4134,-1.393545 2.52861,-2.881893 3.18454,-4.250063 0.45483,-0.948699 0.6435,-1.638416 0.6435,-2.352478 0,-1.051788 -0.42542,-1.759171 -1.32099,-2.19657 -1.41625,-0.691683 -3.39167,-0.503608 -5.43808,0.517742 l -0.68963,0.344194 0.0601,-0.454983 c 0.26789,-2.028828 2.21394,-4.277743 4.73261,-5.469168 2.71827,-1.285837 5.57191,-1.296725 8.01406,-0.03058 1.83078,0.949171 3.128011,2.639017 3.67835,4.791619 0.862297,3.372834 -0.337537,7.197029 -3.40157,10.841715 -1.11432,1.325499 -10.09609,10.134753 -10.38193,10.182538 -0.10567,0.0177 -0.89288,-0.683983 -2.42447,-2.160927 z m 10.38069,-66.294043 c 0.18376,-0.05505 0.33411,-0.143657 0.33411,-0.196858 0,-0.273955 -0.77294,-1.117133 -1.2531,-1.36698 -0.36705,-0.190986 -1.47683,-0.308716 -1.90261,-0.201825 l -0.22865,0.05742 0.28785,0.328095 c 0.15831,0.180456 0.43571,0.50966 0.61643,0.731573 0.18072,0.221904 0.47239,0.479426 0.64816,0.572264 0.36564,0.193155 1.00008,0.225485 1.49781,0.07634 z m -22.57811,55.867178 c -0.7427,-0.6025 -1.77746,-1.473343 -2.29948,-1.935201 -3.36866,-2.980438 -5.61221,-6.395927 -6.67113,-10.155846 -0.41877,-1.486985 -0.54004,-2.349884 -0.58659,-4.174163 -0.0476,-1.867547 0.0724,-3.07733 0.45676,-4.601058 0.49078,-1.945867 0.94643,-3.056051 2.46641,-6.009388 1.63006,-3.167216 1.99896,-4.296787 1.99709,-6.115169 -0.002,-1.610376 -0.46056,-2.98446 -1.32457,-3.96623 -0.30547,-0.347089 -1.17178,-0.984331 -1.23303,-0.906989 -0.0143,0.01802 -0.14786,0.213276 -0.2969,0.433949 -0.84002,1.243753 -2.28375,1.961754 -4.29462,2.135833 -3.143874,0.272161 -6.701774,2.239601 -7.228204,3.997051 -0.0634,0.211384 -0.15332,0.337661 -0.24067,0.337661 -0.26459,0 -1.23814,-0.649444 -1.65238,-1.102282 -0.66636,-0.728441 -0.88667,-1.280593 -0.92949,-2.329543 -0.0298,-0.731377 -0.003,-0.989575 0.15431,-1.512652 0.32752,-1.085456 0.54474,-1.394147 1.37273,-1.950817 1.46545,-0.985245 2.04659,-1.678526 2.51114,-2.995666 0.14971,-0.424496 0.37779,-0.967489 0.50683,-1.206652 0.30886,-0.572419 1.11357,-1.426942 1.92711,-2.046388 0.86633,-0.659654 1.34156,-1.200037 2.19957,-2.501151 0.786514,-1.192705 1.455624,-1.928911 2.302324,-2.533228 0.74974,-0.535106 1.86645,-1.060572 2.79968,-1.317376 0.66995,-0.184355 0.78212,-0.195096 0.89181,-0.08537 0.10971,0.109721 0.0448,0.210225 -0.51612,0.799005 -0.35288,0.370424 -0.78966,0.897464 -0.9706,1.171199 -0.34511,0.522065 -0.71905,1.334985 -0.64717,1.406878 0.0232,0.02316 0.21344,-0.01859 0.42286,-0.0927 0.20942,-0.07414 0.94466,-0.231676 1.63386,-0.350066 1.84393,-0.316741 2.91086,-0.629649 4.40457,-1.291767 0.45241,-0.200544 0.87437,-0.34474 0.93767,-0.320444 0.27363,0.105015 -0.22225,1.041472 -1.08864,2.055882 -0.49324,0.5775 -1.81428,1.681666 -2.01199,1.681666 -0.26581,0 0.0305,0.183613 0.81909,0.507523 3.43995,1.413003 6.20439,4.34016 7.43298,7.870483 0.47168,1.355374 0.65492,2.368756 0.71378,3.947601 0.10022,2.687994 -0.35064,4.821731 -1.74249,8.246468 -1.20452,2.963809 -1.45268,3.94695 -1.45094,5.748083 6.6e-4,0.75529 0.0523,1.46087 0.13706,1.877251 l 0.13587,0.667117 -0.47328,0.995872 c -1.20409,2.533644 -1.88212,5.722343 -1.71929,8.085586 0.2007,2.912794 0.84599,5.226148 2.17913,7.812162 0.23578,0.457356 0.40543,0.828587 0.37699,0.824949 -0.0285,-0.0033 -0.65935,-0.499571 -1.40204,-1.102077 z M -101.59428,44.812758 c 0.41495,-0.156479 0.80538,-0.611902 1.20732,-1.408322 0.21244,-0.420933 0.37411,-0.775664 0.35926,-0.788289 -0.0148,-0.01264 -0.27093,0.0065 -0.56907,0.04306 -1.05095,0.127933 -1.98012,0.808034 -2.31998,1.6981 -0.12697,0.332547 -0.13077,0.400616 -0.026,0.466931 0.16968,0.107413 1.05317,0.0999 1.3485,-0.0115 z m 43.820255,38.20503 c 1.969384,-4.914976 0.863837,-9.737409 -2.873011,-12.532179 -0.57305,-0.428574 -1.69413,-0.98973 -2.556,-1.279386 l -0.69745,-0.2344 0.4412,-0.372095 c 0.89227,-0.752517 1.73232,-2.109522 2.03307,-3.284187 0.3748,-1.463863 0.24995,-2.694567 -0.51884,-5.114184 -0.96163,-3.026625 -1.1909,-4.219787 -1.19535,-6.220951 -0.004,-1.657549 0.14416,-2.65046 0.61139,-4.105768 0.42232,-1.315476 0.87195,-2.251785 1.62299,-3.379766 1.692594,-2.542118 4.207229,-4.330112 7.377255,-5.245477 l 0.717363,-0.207143 -0.572005,-0.502303 c -0.707032,-0.620857 -1.327677,-1.431656 -1.778012,-2.322749 -0.358347,-0.709063 -0.417474,-0.966593 -0.235838,-1.02715 0.05928,-0.01974 0.613437,0.222924 1.231489,0.53929 1.293511,0.662134 2.235906,1.019769 3.759546,1.426738 0.594136,0.158697 1.306549,0.373351 1.583133,0.47702 0.276585,0.103661 0.52352,0.16784 0.548741,0.142606 0.07575,-0.07577 -0.144461,-0.671171 -0.461498,-1.247684 -0.163925,-0.298081 -0.568295,-0.877107 -0.8986,-1.286727 -0.453662,-0.562591 -0.577908,-0.772067 -0.507945,-0.85639 0.07543,-0.09085 0.176067,-0.08705 0.540937,0.02039 1.676598,0.493756 3.541485,1.824263 4.628489,3.302211 0.231605,0.314915 0.717265,1.159732 1.07924,1.877374 0.572405,1.134856 0.754017,1.408869 1.394395,2.103855 1.43117,1.553235 1.732658,2.064795 1.990047,3.376674 0.264695,1.349119 0.777395,2.139904 2.075006,3.200419 0.787775,0.64384 0.907993,0.933455 0.967846,2.331574 0.0389,0.909338 0.02308,1.05196 -0.185917,1.673967 -0.265495,0.790173 -0.55153,1.23678 -1.151472,1.797862 -0.461995,0.432065 -1.266177,0.888565 -1.444657,0.820064 -0.05985,-0.023 -0.151302,-0.210698 -0.203286,-0.417197 -0.287013,-1.140059 -2.084718,-2.705643 -4.339566,-3.779256 -1.074316,-0.511511 -1.703947,-0.711999 -2.971836,-0.946284 -0.655024,-0.121033 -1.139281,-0.27115 -1.584275,-0.49113 -0.816013,-0.403373 -1.712851,-1.237049 -2.087898,-1.940851 -0.152534,-0.28623 -0.323659,-0.520051 -0.380282,-0.51961 -0.239956,0.0016 -1.013526,0.540244 -1.427893,0.993718 -0.486295,0.532187 -0.965994,1.452976 -1.14803,2.203658 -0.167089,0.689064 -0.142952,2.318818 0.04672,3.154957 0.271602,1.197224 0.638234,2.089712 1.900725,4.626888 1.678799,3.373836 2.168218,4.896724 2.39595,7.455325 0.172797,1.941487 -0.101423,4.190189 -0.759121,6.225061 -0.992308,3.070112 -2.765908,5.822456 -5.763512,8.944048 -1.704044,1.77452 -1.656358,1.749987 -1.20325,0.619152 z m 15.268736,-35.15282 c -0.259101,-1.161705 -1.21876,-2.006172 -2.527445,-2.224072 l -0.373441,-0.06215 0.167155,0.332776 c 0.09193,0.183026 0.231124,0.5285 0.309307,0.767703 0.30541,0.934393 0.944027,1.413461 1.892457,1.419659 l 0.584986,0.0041 z"
       id="path1" /><path
       style="fill:#3d3846;stroke:none;stroke-width:0.999998"
       d="m 50.225398,90.336824 c -1.247406,-1.2029 -3.076498,-2.965026 -4.064656,-3.915837 -1.949708,-1.876028 -2.713085,-2.707339 -3.770212,-4.105776 -2.032221,-2.688362 -3.157818,-5.23875 -3.664777,-8.303716 -0.169404,-1.024197 -0.185925,-1.354901 -0.140074,-2.803481 0.105924,-3.346547 1.023531,-6.13312 2.994758,-9.094457 0.845719,-1.270513 1.441714,-2.010511 3.156106,-3.918747 0.745292,-0.829541 1.607352,-1.819443 1.915697,-2.199767 2.498704,-3.081971 3.461167,-6.086534 2.875292,-8.975896 -0.321359,-1.584872 -0.89565,-2.737842 -2.380002,-4.778211 -3.278665,-4.506809 -4.297067,-6.727308 -4.619649,-10.072599 -0.4383,-4.545386 1.986288,-9.177036 5.976493,-11.416767 l 0.656861,-0.368694 -0.70007,-0.373221 c -1.240541,-0.661342 -2.480388,-1.73264 -3.050289,-2.6356 -0.370937,-0.58772 -0.161161,-0.705352 0.716311,-0.401668 1.800673,0.623198 3.669737,0.946529 5.477349,0.947524 0.500321,2.77e-4 1.140618,0.03833 1.422878,0.08456 0.282259,0.04624 0.533337,0.06394 0.557947,0.03931 0.190312,-0.19035 -1.345208,-1.892136 -2.211346,-2.450788 -0.246854,-0.159219 -0.469016,-0.342114 -0.493699,-0.406432 -0.200408,-0.522358 2.276017,-0.08654 3.784897,0.66609 1.037091,0.51731 1.676075,1.017607 2.702664,2.116104 0.974002,1.042222 1.527374,1.462697 2.790388,2.120272 1.07734,0.560912 1.762771,1.242611 2.344015,2.331264 0.712087,1.333721 1.421997,1.896353 3.52326,2.792348 0.71989,0.306963 1.261668,1.536541 1.26157,2.863166 -6.6e-5,0.953852 -0.168288,1.490957 -0.688244,2.19741 -0.355803,0.483422 -1.201033,1.216863 -1.402321,1.216863 -0.05072,0 -0.338834,-0.243738 -0.640305,-0.541647 -0.602192,-0.595069 -1.242464,-0.946268 -2.475967,-1.358107 -1.7486,-0.583829 -2.88978,-0.701282 -5.849989,-0.602123 -0.988353,0.03311 -1.196213,0.01444 -1.728401,-0.155076 -0.757359,-0.241266 -1.339949,-0.575877 -1.936139,-1.112011 l -0.464369,-0.417588 -0.413078,0.449323 c -1.272106,1.383748 -1.468754,3.572766 -0.528086,5.87847 0.565139,1.385249 1.397827,2.594772 3.341672,4.853987 1.515812,1.761732 2.058641,2.488738 2.722936,3.646756 0.983387,1.714298 1.665744,3.73568 1.904231,5.64098 0.159954,1.277893 0.0605,3.622541 -0.210192,4.955201 -0.569599,2.804215 -1.870082,5.629969 -3.900533,8.47524 -0.415826,0.582688 -1.512819,2.00242 -2.437765,3.154966 -1.911676,2.382067 -2.781573,3.636904 -3.340262,4.818395 -0.580349,1.227287 -0.834998,2.190494 -0.891189,3.370958 -0.09479,1.991336 0.493479,3.812075 1.85857,5.752396 0.496554,0.705793 2.143975,2.533923 2.484644,2.757182 l 0.231956,0.152009 0.644651,-0.635595 c 1.413394,-1.393545 2.528603,-2.881893 3.184532,-4.250063 0.454836,-0.948699 0.643501,-1.638416 0.643501,-2.352478 0,-1.051788 -0.425416,-1.759171 -1.32099,-2.19657 -1.416248,-0.691683 -3.391666,-0.503608 -5.438075,0.517742 l -0.689631,0.344194 0.0601,-0.454983 c 0.267892,-2.028828 2.213939,-4.277743 4.73261,-5.469168 2.718272,-1.285837 5.571912,-1.296725 8.014064,-0.03058 1.830778,0.949171 3.128006,2.639017 3.678345,4.791619 0.862297,3.372834 -0.337537,7.197029 -3.401565,10.841715 -1.114329,1.325499 -10.096091,10.134752 -10.381938,10.182542 -0.105663,0.0177 -0.892876,-0.68399 -2.424466,-2.16093 z M 38.027977,79.909957 C 37.285279,79.307457 36.25052,78.436614 35.7285,77.974756 32.359837,74.994318 30.116282,71.578829 29.05737,67.81891 c -0.418778,-1.486985 -0.540048,-2.349884 -0.586593,-4.174163 -0.04762,-1.867547 0.07241,-3.07733 0.456761,-4.601058 0.49078,-1.945867 0.946424,-3.056051 2.466411,-6.009388 1.630061,-3.167216 1.998959,-4.296787 1.997084,-6.115169 -0.0016,-1.610376 -0.460553,-2.98446 -1.32457,-3.96623 -0.305467,-0.347089 -1.171775,-0.984331 -1.233022,-0.906989 -0.01427,0.01802 -0.147861,0.213276 -0.296904,0.433949 -0.84002,1.243753 -2.283748,1.961754 -4.294621,2.135833 -3.143866,0.272161 -6.701765,2.239601 -7.228204,3.997051 -0.06336,0.211384 -0.153317,0.337661 -0.240665,0.337661 -0.26459,0 -1.238143,-0.649444 -1.652379,-1.102282 -0.666366,-0.728441 -0.88667,-1.280593 -0.929496,-2.329543 -0.02984,-0.731377 -0.0033,-0.989575 0.154319,-1.512652 0.327516,-1.085456 0.544738,-1.394147 1.372729,-1.950817 1.465443,-0.985245 2.046589,-1.678526 2.511137,-2.995666 0.149712,-0.424496 0.377787,-0.967489 0.506828,-1.206652 0.308859,-0.572419 1.11357,-1.426942 1.927112,-2.046388 0.866333,-0.659654 1.341564,-1.200037 2.199571,-2.501151 0.786511,-1.192705 1.455617,-1.928911 2.302314,-2.533228 0.749744,-0.535106 1.866453,-1.060572 2.799684,-1.317376 0.669946,-0.184355 0.782116,-0.195096 0.891815,-0.08537 0.109707,0.109721 0.04477,0.210225 -0.516124,0.799005 -0.352884,0.370424 -0.789658,0.897464 -0.970601,1.171199 -0.345105,0.522065 -0.719051,1.334985 -0.647171,1.406878 0.02316,0.02316 0.213437,-0.01859 0.422863,-0.0927 0.209418,-0.07414 0.944655,-0.231676 1.633861,-0.350066 1.843931,-0.316741 2.910859,-0.629649 4.404564,-1.291767 0.452415,-0.200544 0.874373,-0.34474 0.937675,-0.320444 0.273624,0.105015 -0.222253,1.041472 -1.088643,2.055882 -0.493235,0.5775 -1.814282,1.681666 -2.01199,1.681666 -0.265813,0 0.0305,0.183613 0.819087,0.507523 3.439956,1.413003 6.204397,4.34016 7.432983,7.870483 0.471683,1.355374 0.654917,2.368756 0.713783,3.947601 0.100216,2.687994 -0.350641,4.821731 -1.742492,8.246468 -1.204523,2.963809 -1.452681,3.94695 -1.450936,5.748083 6.52e-4,0.75529 0.05227,1.46087 0.137056,1.877251 l 0.135875,0.667117 -0.473281,0.995872 c -1.204091,2.533644 -1.882126,5.722343 -1.719293,8.085586 0.2007,2.912794 0.845988,5.226148 2.179128,7.812162 0.23578,0.457356 0.405429,0.828587 0.376995,0.824949 -0.02846,-0.0033 -0.659353,-0.499571 -1.402043,-1.102077 z m 29.37167,-1.576425 c 1.969384,-4.914976 0.863837,-9.737409 -2.873007,-12.532179 -0.573049,-0.428574 -1.694137,-0.98973 -2.556001,-1.279386 l -0.697451,-0.2344 0.441203,-0.372095 c 0.892263,-0.752517 1.732315,-2.109522 2.033069,-3.284187 0.374794,-1.463863 0.249944,-2.694567 -0.518839,-5.114184 -0.961632,-3.026625 -1.190906,-4.219787 -1.195358,-6.220951 -0.0041,-1.657549 0.144168,-2.65046 0.61139,-4.105768 0.422326,-1.315476 0.871952,-2.251785 1.622992,-3.379766 1.692595,-2.542118 4.20723,-4.330112 7.377256,-5.245477 l 0.717363,-0.207143 -0.572005,-0.502303 c -0.707032,-0.620857 -1.327677,-1.431656 -1.778012,-2.322749 -0.358347,-0.709063 -0.417474,-0.966593 -0.235838,-1.02715 0.05928,-0.01974 0.613437,0.222924 1.231489,0.53929 1.293511,0.662134 2.235906,1.019769 3.759546,1.426738 0.594136,0.158697 1.306549,0.373351 1.583133,0.47702 0.276585,0.103661 0.52352,0.16784 0.548741,0.142606 0.07575,-0.07577 -0.144461,-0.671171 -0.461498,-1.247684 -0.163925,-0.298081 -0.568295,-0.877107 -0.8986,-1.286727 -0.453662,-0.562591 -0.577908,-0.772067 -0.507945,-0.85639 0.07543,-0.09085 0.176067,-0.08705 0.540937,0.02039 1.676598,0.493756 3.541485,1.824263 4.628489,3.302211 0.231605,0.314915 0.717265,1.159732 1.07924,1.877374 0.572405,1.134856 0.754017,1.408869 1.394395,2.103855 1.43117,1.553235 1.732658,2.064795 1.990047,3.376674 0.264695,1.349119 0.777395,2.139904 2.075006,3.200419 0.787775,0.64384 0.907993,0.933455 0.967846,2.331574 0.0389,0.909338 0.02308,1.05196 -0.185917,1.673967 -0.265495,0.790173 -0.55153,1.23678 -1.151472,1.797862 -0.461995,0.432065 -1.266177,0.888565 -1.444657,0.820064 -0.05985,-0.023 -0.151302,-0.210698 -0.203286,-0.417197 C 84.43489,50.647781 82.637185,49.082197 80.382337,48.008584 79.308021,47.497073 78.67839,47.296585 77.410501,47.0623 76.755477,46.941267 76.27122,46.79115 75.826226,46.57117 c -0.816013,-0.403373 -1.712851,-1.237049 -2.087898,-1.940851 -0.152534,-0.28623 -0.323659,-0.520051 -0.380282,-0.51961 -0.239956,0.0016 -1.013526,0.540244 -1.427893,0.993718 -0.486295,0.532187 -0.965994,1.452976 -1.14803,2.203658 -0.167089,0.689064 -0.142952,2.318818 0.04672,3.154957 0.271602,1.197224 0.638234,2.089712 1.900725,4.626888 1.678799,3.373836 2.168218,4.896724 2.39595,7.455325 0.172797,1.941487 -0.101423,4.190189 -0.759121,6.225061 -0.992308,3.070112 -2.765908,5.822456 -5.763512,8.944048 -1.704044,1.77452 -1.656358,1.749987 -1.20325,0.619152 z"
       id="path1-1"
       sodipodi:nodetypes="ssssssccsssscssssccscssssssssssscscssscsssssssscsssssccsssscsssssccscsscscscccssccscscscscssssscssscccssscsscsscssccssscssccsssssccssssscsscssscscsscsssscc" /><circle
       style="fill:#3d3846;fill-opacity:1;stroke:none;stroke-width:1;stroke-linejoin:round;stroke-dasharray:none"
       id="path2-6"
       cx="179.98567"
       cy="55.762604"
       r="44.366066" /><path
       style="fill:url(#linearGradient6);stroke:none;stroke-width:0.999998"
       d="m 178.25882,92.371484 c -1.24741,-1.2029 -3.0765,-2.96503 -4.06466,-3.91584 -1.94971,-1.876028 -2.71308,-2.707339 -3.77021,-4.105776 -2.03222,-2.688362 -3.15782,-5.23875 -3.66478,-8.303716 -0.1694,-1.024197 -0.18592,-1.354901 -0.14007,-2.803481 0.10592,-3.346547 1.02353,-6.13312 2.99476,-9.094457 0.84572,-1.270513 1.44171,-2.010511 3.1561,-3.918747 0.74529,-0.829541 1.60735,-1.819443 1.9157,-2.199767 2.4987,-3.081971 3.46117,-6.086534 2.87529,-8.975896 -0.32136,-1.584872 -0.89565,-2.737842 -2.38,-4.778211 -3.27867,-4.506809 -4.29707,-6.727308 -4.61965,-10.072599 -0.4383,-4.545386 1.98629,-9.177036 5.97649,-11.416767 l 0.65686,-0.368694 -0.70007,-0.373221 c -1.24054,-0.661342 -2.48038,-1.73264 -3.05028,-2.6356 -0.37094,-0.58772 -0.16116,-0.705352 0.71631,-0.401668 1.80067,0.623198 3.66973,0.946529 5.47735,0.947524 0.50032,2.77e-4 1.14061,0.03833 1.42287,0.08456 0.28226,0.04624 0.53334,0.06394 0.55795,0.03931 0.19031,-0.19035 -1.34521,-1.892136 -2.21135,-2.450788 -0.24685,-0.159219 -0.46901,-0.342114 -0.49369,-0.406432 -0.20041,-0.522358 2.27601,-0.08654 3.78489,0.66609 1.03709,0.51731 1.67608,1.017607 2.70267,2.116104 0.974,1.042222 1.52737,1.462697 2.79038,2.120272 1.07734,0.560912 1.76278,1.242611 2.34402,2.331264 0.71209,1.333721 1.422,1.896353 3.52326,2.792348 0.71989,0.306963 1.26167,1.536541 1.26157,2.863166 -7e-5,0.953852 -0.16829,1.490957 -0.68824,2.19741 -0.35581,0.483422 -1.20104,1.216863 -1.40233,1.216863 -0.0507,0 -0.33883,-0.243738 -0.6403,-0.541647 -0.60219,-0.595069 -1.24246,-0.946268 -2.47597,-1.358107 -1.7486,-0.583829 -2.88978,-0.701282 -5.84999,-0.602123 -0.98835,0.03311 -1.19621,0.01444 -1.7284,-0.155076 -0.75736,-0.241266 -1.33995,-0.575877 -1.93614,-1.112011 l -0.46436,-0.417588 -0.41308,0.449323 c -1.27211,1.383748 -1.46876,3.572766 -0.52809,5.87847 0.56514,1.385249 1.39783,2.594772 3.34167,4.853987 1.51581,1.761732 2.05864,2.488738 2.72294,3.646756 0.98339,1.714298 1.66574,3.73568 1.90423,5.64098 0.15995,1.277893 0.0605,3.622541 -0.21019,4.955201 -0.5696,2.804215 -1.87008,5.629969 -3.90054,8.47524 -0.41582,0.582688 -1.51281,2.00242 -2.43776,3.154966 -1.91168,2.382067 -2.78157,3.636904 -3.34026,4.818395 -0.58035,1.227287 -0.835,2.190494 -0.89119,3.370958 -0.0948,1.991336 0.49348,3.812075 1.85857,5.752396 0.49655,0.705793 2.14397,2.533923 2.48464,2.757182 l 0.23196,0.152009 0.64465,-0.635595 c 1.41339,-1.393545 2.5286,-2.881893 3.18453,-4.250063 0.45484,-0.948699 0.6435,-1.638416 0.6435,-2.352478 0,-1.051788 -0.42541,-1.759171 -1.32099,-2.19657 -1.41624,-0.691683 -3.39166,-0.503608 -5.43807,0.517742 l -0.68963,0.344194 0.0601,-0.454983 c 0.26789,-2.028828 2.21394,-4.277743 4.73261,-5.469168 2.71827,-1.285837 5.57191,-1.296725 8.01406,-0.03058 1.83078,0.949171 3.12801,2.639017 3.67835,4.791619 0.86229,3.372834 -0.33754,7.197029 -3.40157,10.841715 -1.11433,1.325499 -10.09609,10.134755 -10.38194,10.182545 -0.10566,0.0177 -0.89287,-0.68399 -2.42446,-2.16093 z M 166.0614,81.944614 c -0.7427,-0.6025 -1.77746,-1.473343 -2.29948,-1.935201 -3.36866,-2.980438 -5.61222,-6.395927 -6.67113,-10.155846 -0.41878,-1.486985 -0.54005,-2.349884 -0.58659,-4.174163 -0.0476,-1.867547 0.0724,-3.07733 0.45676,-4.601058 0.49078,-1.945867 0.94642,-3.056051 2.46641,-6.009388 1.63006,-3.167216 1.99896,-4.296787 1.99708,-6.115169 -0.002,-1.610376 -0.46055,-2.98446 -1.32457,-3.96623 -0.30546,-0.347089 -1.17177,-0.984331 -1.23302,-0.906989 -0.0143,0.01802 -0.14786,0.213276 -0.2969,0.433949 -0.84002,1.243753 -2.28375,1.961754 -4.29462,2.135833 -3.14387,0.272161 -6.70177,2.239601 -7.22821,3.997051 -0.0634,0.211384 -0.15331,0.337661 -0.24066,0.337661 -0.26459,0 -1.23815,-0.649444 -1.65238,-1.102282 -0.66637,-0.728441 -0.88667,-1.280593 -0.9295,-2.329543 -0.0298,-0.731377 -0.003,-0.989575 0.15432,-1.512652 0.32752,-1.085456 0.54474,-1.394147 1.37273,-1.950817 1.46544,-0.985245 2.04659,-1.678526 2.51114,-2.995666 0.14971,-0.424496 0.37778,-0.967489 0.50682,-1.206652 0.30886,-0.572419 1.11357,-1.426942 1.92712,-2.046388 0.86633,-0.659654 1.34156,-1.200037 2.19957,-2.501151 0.78651,-1.192705 1.45562,-1.928911 2.30231,-2.533228 0.74975,-0.535106 1.86645,-1.060572 2.79969,-1.317376 0.66994,-0.184355 0.78211,-0.195096 0.89181,-0.08537 0.10971,0.109721 0.0448,0.210225 -0.51612,0.799005 -0.35289,0.370424 -0.78966,0.897464 -0.9706,1.171199 -0.34511,0.522065 -0.71906,1.334985 -0.64718,1.406878 0.0232,0.02316 0.21344,-0.01859 0.42287,-0.0927 0.20942,-0.07414 0.94465,-0.231676 1.63386,-0.350066 1.84393,-0.316741 2.91086,-0.629649 4.40456,-1.291767 0.45242,-0.200544 0.87438,-0.34474 0.93768,-0.320444 0.27362,0.105015 -0.22226,1.041472 -1.08864,2.055882 -0.49324,0.5775 -1.81429,1.681666 -2.01199,1.681666 -0.26582,0 0.0305,0.183613 0.81908,0.507523 3.43996,1.413003 6.2044,4.34016 7.43299,7.870483 0.47168,1.355374 0.65491,2.368756 0.71378,3.947601 0.10021,2.687994 -0.35064,4.821731 -1.74249,8.246468 -1.20453,2.963809 -1.45268,3.94695 -1.45094,5.748083 6.5e-4,0.75529 0.0523,1.46087 0.13706,1.877251 l 0.13587,0.667117 -0.47328,0.995872 c -1.20409,2.533644 -1.88213,5.722343 -1.71929,8.085586 0.2007,2.912794 0.84598,5.226148 2.17913,7.812162 0.23577,0.457356 0.40542,0.828587 0.37699,0.824949 -0.0285,-0.0033 -0.65935,-0.499571 -1.40204,-1.102077 z m 29.37167,-1.576425 c 1.96938,-4.914976 0.86383,-9.737409 -2.87301,-12.532179 -0.57305,-0.428574 -1.69414,-0.98973 -2.556,-1.279386 l -0.69745,-0.2344 0.4412,-0.372095 c 0.89226,-0.752517 1.73232,-2.109522 2.03307,-3.284187 0.37479,-1.463863 0.24994,-2.694567 -0.51884,-5.114184 -0.96163,-3.026625 -1.19091,-4.219787 -1.19536,-6.220951 -0.004,-1.657549 0.14417,-2.65046 0.61139,-4.105768 0.42233,-1.315476 0.87195,-2.251785 1.62299,-3.379766 1.6926,-2.542118 4.20723,-4.330112 7.37726,-5.245477 l 0.71736,-0.207143 -0.572,-0.502303 c -0.70703,-0.620857 -1.32768,-1.431656 -1.77801,-2.322749 -0.35835,-0.709063 -0.41748,-0.966593 -0.23584,-1.02715 0.0593,-0.01974 0.61344,0.222924 1.23149,0.53929 1.29351,0.662134 2.2359,1.019769 3.75954,1.426738 0.59414,0.158697 1.30655,0.373351 1.58314,0.47702 0.27658,0.103661 0.52352,0.16784 0.54874,0.142606 0.0757,-0.07577 -0.14446,-0.671171 -0.4615,-1.247684 -0.16392,-0.298081 -0.5683,-0.877107 -0.8986,-1.286727 -0.45366,-0.562591 -0.57791,-0.772067 -0.50795,-0.85639 0.0754,-0.09085 0.17607,-0.08705 0.54094,0.02039 1.6766,0.493756 3.54149,1.824263 4.62849,3.302211 0.23161,0.314915 0.71727,1.159732 1.07924,1.877374 0.57241,1.134856 0.75402,1.408869 1.3944,2.103855 1.43117,1.553235 1.73265,2.064795 1.99004,3.376674 0.2647,1.349119 0.7774,2.139904 2.07501,3.200419 0.78777,0.64384 0.90799,0.933455 0.96784,2.331574 0.0389,0.909338 0.0231,1.05196 -0.18591,1.673967 -0.2655,0.790173 -0.55153,1.23678 -1.15147,1.797862 -0.462,0.432065 -1.26618,0.888565 -1.44466,0.820064 -0.0598,-0.023 -0.1513,-0.210698 -0.20329,-0.417197 -0.28701,-1.140059 -2.08471,-2.705643 -4.33956,-3.779256 -1.07432,-0.511511 -1.70395,-0.711999 -2.97184,-0.946284 -0.65502,-0.121033 -1.13928,-0.27115 -1.58427,-0.49113 -0.81602,-0.403373 -1.71286,-1.237049 -2.0879,-1.940851 -0.15254,-0.28623 -0.32366,-0.520051 -0.38028,-0.51961 -0.23996,0.0016 -1.01353,0.540244 -1.4279,0.993718 -0.48629,0.532187 -0.96599,1.452976 -1.14803,2.203658 -0.16709,0.689064 -0.14295,2.318818 0.0467,3.154957 0.27161,1.197224 0.63824,2.089712 1.90073,4.626888 1.6788,3.373836 2.16822,4.896724 2.39595,7.455325 0.17279,1.941487 -0.10142,4.190189 -0.75912,6.225061 -0.99231,3.070112 -2.76591,5.822456 -5.76352,8.944048 -1.70404,1.77452 -1.65635,1.749987 -1.20324,0.619152 z"
       id="path1-1-1"
       sodipodi:nodetypes="ssssssccsssscssssccscssssssssssscscssscsssssssscsssssccsssscsssssccscsscscscccssccscscscscssssscssscccssscsscsscssccssscssccsssssccssssscsscssscscsscsssscc" /></g></svg>
